<svg xmlns="http://www.w3.org/2000/svg" width="96" height="96" viewBox="0 0 96 96" role="img" aria-label="しきがみAI Works">
  <rect width="96" height="96" rx="12" fill="#101315"/>
  <path d="M27 62c5 7 14 10 24 10 13 0 22-6 22-16 0-9-6-13-19-16l-10-2c-7-2-10-4-10-8 0-5 5-8 13-8 7 0 12 2 17 7l7-9c-6-6-14-9-24-9-13 0-23 7-23 18 0 9 6 14 19 17l10 2c7 2 10 4 10 8 0 5-5 8-13 8-8 0-14-3-18-9l-5 7Z" fill="#F8FBF8"/>
  <path d="M18 20h12v4H18v-4Zm48 52h12v4H66v-4ZM72 20h6v6h-6v-6ZM18 70h6v6h-6v-6Z" fill="#8EE2D4"/>
</svg>
